<svg width="136" height="120" viewBox="0 0 136 120" fill="none" xmlns="http://www.w3.org/2000/svg">
<g clip-path="url(#clip0_1_892)">
<path d="M133.616 74.5106C124.554 106.671 87.7232 126.22 51.4227 118.203C15.0692 110.187 -7.02899 77.6048 2.03315 45.4912C11.0948 13.3312 47.8721 -6.21846 84.2256 1.79857C120.526 9.76826 142.678 42.3501 133.616 74.5106Z" fill="url(#paint0_linear_1_892)"/>
<path d="M100.115 52.5233C101.439 44.5546 94.6042 40.2421 85.1727 37.3827L88.2459 26.5546L80.8279 24.9139L77.8607 35.4608C75.9003 35.0389 73.8868 34.6171 71.8733 34.2421L74.8405 23.6483L67.4225 22.0077L64.4024 32.7889C62.7598 32.4608 61.1702 32.1327 59.6336 31.8046V31.7577L49.3544 29.5077L47.394 36.5389C47.394 36.5389 52.9045 37.6639 52.7985 37.7108C55.8187 38.3671 56.3485 40.1483 56.2426 41.5546L52.7455 53.8827C52.9575 53.9296 53.2224 53.9764 53.5403 54.1171C53.2754 54.0702 53.0104 54.0233 52.7455 53.9296L47.8708 71.1796C47.4999 71.9764 46.5462 73.1952 44.4797 72.7264C44.5327 72.8202 39.0752 71.5546 39.0752 71.5546L35.3662 79.1014L45.0626 81.2577C46.8641 81.6796 48.6126 82.0546 50.3612 82.4764L47.288 93.3983L54.706 95.0389L57.7791 84.2108C59.7926 84.6796 61.8061 85.1483 63.7135 85.5702L60.6934 96.3514L68.1114 97.9921L71.1845 87.0702C83.9011 89.1796 93.4385 88.3358 97.4124 78.1639C100.645 70.0077 97.2535 65.2733 90.5773 62.1796C95.505 61.1952 99.161 58.3358 100.115 52.5233ZM83.1063 73.6171C80.8279 81.7733 65.2501 77.3671 60.2165 76.2421L64.2964 61.7577C69.33 62.8827 85.5436 65.0858 83.1063 73.6171ZM85.4377 52.3827C83.3182 59.8358 70.3897 56.0389 66.2039 55.1014L69.9129 41.9764C74.0987 42.9139 87.6101 44.6483 85.4377 52.3827Z" fill="white"/>
</g>
<defs>
<linearGradient id="paint0_linear_1_892" x1="6778.5" y1="-2.87902" x2="6778.5" y2="11998.8" gradientUnits="userSpaceOnUse">
<stop stop-color="#F9AA4B"/>
<stop offset="1" stop-color="#F7931A"/>
</linearGradient>
<clipPath id="clip0_1_892">
<rect width="135.643" height="120" fill="white"/>
</clipPath>
</defs>
</svg>
