<svg width="121" height="120" viewBox="0 0 121 120" fill="none" xmlns="http://www.w3.org/2000/svg">
<path d="M42.04 78.46V86.25C42.04 86.8833 42.25 87.41 42.67 87.83C43.09 88.25 43.6167 88.46 44.25 88.46C44.8833 88.46 45.41 88.25 45.83 87.83C46.25 87.41 46.46 86.8833 46.46 86.25V78.46H54.25C54.8833 78.46 55.41 78.25 55.83 77.83C56.25 77.4133 56.46 76.8867 56.46 76.25C56.46 75.6133 56.25 75.0867 55.83 74.67C55.41 74.2533 54.8833 74.0433 54.25 74.04H46.46V66.25C46.46 65.6167 46.25 65.09 45.83 64.67C45.41 64.25 44.8833 64.04 44.25 64.04C43.6167 64.04 43.09 64.25 42.67 64.67C42.25 65.09 42.04 65.6167 42.04 66.25V74.04H34.25C33.6167 74.04 33.09 74.25 32.67 74.67C32.25 75.0867 32.04 75.6133 32.04 76.25C32.04 76.8867 32.25 77.4133 32.67 77.83C33.0867 78.25 33.6133 78.46 34.25 78.46H42.04ZM69.25 84.71H86.75C87.3833 84.71 87.91 84.5 88.33 84.08C88.75 83.6633 88.96 83.1367 88.96 82.5C88.96 81.8633 88.75 81.3367 88.33 80.92C87.9133 80.5 87.3867 80.29 86.75 80.29H69.25C68.6167 80.29 68.09 80.5 67.67 80.92C67.25 81.34 67.04 81.8667 67.04 82.5C67.04 83.1333 67.25 83.66 67.67 84.08C68.09 84.5 68.6167 84.71 69.25 84.71ZM69.25 72.21H86.75C87.3833 72.21 87.91 72 88.33 71.58C88.75 71.1633 88.96 70.6367 88.96 70C88.96 69.3633 88.75 68.8367 88.33 68.42C87.9133 68 87.3867 67.79 86.75 67.79H69.25C68.6167 67.79 68.09 68 67.67 68.42C67.25 68.84 67.04 69.3667 67.04 70C67.04 70.6333 67.25 71.16 67.67 71.58C68.09 72 68.6167 72.21 69.25 72.21ZM35.5 44.46H53C53.6333 44.46 54.16 44.25 54.58 43.83C55 43.4133 55.21 42.8867 55.21 42.25C55.21 41.6133 55 41.0867 54.58 40.67C54.16 40.2533 53.6333 40.0433 53 40.04H35.5C34.8667 40.04 34.34 40.25 33.92 40.67C33.5 41.09 33.29 41.6167 33.29 42.25C33.29 42.8833 33.5 43.41 33.92 43.83C34.34 44.25 34.8667 44.46 35.5 44.46ZM28.58 100C26.2767 100 24.355 99.23 22.815 97.69C21.275 96.15 20.5033 94.2267 20.5 91.92V28.08C20.5 25.7767 21.2717 23.855 22.815 22.315C24.3583 20.775 26.28 20.0033 28.58 20H92.425C94.725 20 96.6467 20.7717 98.19 22.315C99.7333 23.8583 100.503 25.78 100.5 28.08V91.925C100.5 94.225 99.73 96.1467 98.19 97.69C96.65 99.2333 94.7267 100.003 92.42 100H28.58ZM28.58 95H92.425C93.1917 95 93.8967 94.68 94.54 94.04C95.1833 93.4 95.5033 92.6933 95.5 91.92V28.08C95.5 27.31 95.18 26.6033 94.54 25.96C93.9 25.3167 93.1933 24.9967 92.42 25H28.58C27.81 25 27.1033 25.32 26.46 25.96C25.8167 26.6 25.4967 27.3067 25.5 28.08V91.925C25.5 92.6917 25.82 93.3967 26.46 94.04C27.1 94.6833 27.805 95.0033 28.575 95M78 45.445L83.435 50.875C83.865 51.305 84.3717 51.5367 84.955 51.57C85.5383 51.6 86.0767 51.3683 86.57 50.875C87.0433 50.4017 87.285 49.885 87.295 49.325C87.3017 48.7617 87.0683 48.2333 86.595 47.74L81.135 42.25L86.57 36.82C86.9967 36.3867 87.2267 35.88 87.26 35.3C87.2933 34.7167 87.0633 34.1783 86.57 33.685C86.0767 33.1917 85.5533 32.945 85 32.945C84.4467 32.945 83.925 33.1917 83.435 33.685L78 39.115L72.57 33.685C72.1367 33.2517 71.6283 33.02 71.045 32.99C70.4617 32.96 69.9233 33.1917 69.43 33.685C68.9367 34.1783 68.6917 34.7 68.695 35.25C68.6983 35.8 68.945 36.3233 69.435 36.82L74.865 42.25L69.405 47.74C68.995 48.17 68.7733 48.6767 68.74 49.26C68.7067 49.8433 68.9383 50.3817 69.435 50.875C69.9317 51.3683 70.4533 51.615 71 51.615C71.5467 51.615 72.07 51.3683 72.57 50.875L78 45.445Z" fill="#FF9606"/>
</svg>
