<svg width="48" height="48" viewBox="0 0 48 48" fill="none" xmlns="http://www.w3.org/2000/svg">
<rect width="48" height="48" rx="4" fill="#3396FF" fill-opacity="0.3"/>
<g clip-path="url(#clip0_6_210)">
<path d="M14.913 19.5188C18.828 15.6878 25.173 15.6878 29.087 19.5188L29.558 19.9798C29.6045 20.0248 29.6415 20.0787 29.6668 20.1383C29.692 20.1979 29.705 20.262 29.705 20.3268C29.705 20.3915 29.692 20.4556 29.6668 20.5152C29.6415 20.5748 29.6045 20.6287 29.558 20.6738L27.947 22.2508C27.9238 22.274 27.8962 22.2925 27.8658 22.3051C27.8355 22.3177 27.8029 22.3242 27.77 22.3242C27.7371 22.3242 27.7046 22.3177 27.6742 22.3051C27.6438 22.2925 27.6162 22.274 27.593 22.2508L26.944 21.6168C24.214 18.9438 19.787 18.9438 17.057 21.6168L16.363 22.2968C16.3154 22.3429 16.2518 22.3687 16.1855 22.3687C16.1193 22.3687 16.0556 22.3429 16.008 22.2968L14.397 20.7188C14.3503 20.674 14.3131 20.6202 14.2877 20.5606C14.2623 20.5011 14.2492 20.437 14.2492 20.3723C14.2492 20.3075 14.2623 20.2434 14.2877 20.1839C14.3131 20.1244 14.3503 20.0706 14.397 20.0258L14.913 19.5188ZM32.419 22.7818L33.853 24.1858C33.8995 24.2308 33.9365 24.2847 33.9618 24.3443C33.987 24.4039 34 24.468 34 24.5328C34 24.5975 33.987 24.6616 33.9618 24.7212C33.9365 24.7808 33.8995 24.8347 33.853 24.8798L27.387 31.2108C27.2919 31.3027 27.1648 31.3541 27.0325 31.3541C26.9002 31.3541 26.7731 31.3027 26.678 31.2108L22.09 26.7178C22.0664 26.6942 22.0344 26.6809 22.001 26.6809C21.9677 26.6809 21.9356 26.6942 21.912 26.7178L17.323 31.2108C17.2279 31.3027 17.1008 31.3541 16.9685 31.3541C16.8362 31.3541 16.7091 31.3027 16.614 31.2108L10.147 24.8798C10.1005 24.8347 10.0635 24.7808 10.0383 24.7212C10.013 24.6616 10 24.5975 10 24.5328C10 24.468 10.013 24.4039 10.0383 24.3443C10.0635 24.2847 10.1005 24.2308 10.147 24.1858L11.581 22.7818C11.6761 22.6898 11.8032 22.6384 11.9355 22.6384C12.0678 22.6384 12.1949 22.6898 12.29 22.7818L16.879 27.2748C16.929 27.3228 17.008 27.3228 17.057 27.2748L21.646 22.7818C21.7411 22.6898 21.8682 22.6384 22.0005 22.6384C22.1328 22.6384 22.2599 22.6898 22.355 22.7818L26.944 27.2748C26.994 27.3228 27.072 27.3228 27.122 27.2748L31.711 22.7818C31.8057 22.6894 31.9328 22.6377 32.065 22.6377C32.1973 22.6377 32.3243 22.6894 32.419 22.7818Z" fill="#3396FF"/>
</g>
<defs>
<clipPath id="clip0_6_210">
<rect width="24" height="24" fill="white" transform="translate(10 12)"/>
</clipPath>
</defs>
</svg>
