<svg width="101" height="100" viewBox="0 0 101 100" fill="none" xmlns="http://www.w3.org/2000/svg">
<path d="M29.895 32.93C27.3108 34.6382 24.1844 35.326 21.1219 34.86C18.0595 34.394 15.2791 32.8075 13.3199 30.4081C11.3607 28.0086 10.3622 24.9671 10.518 21.8733C10.6739 18.7795 11.973 15.8538 14.1634 13.6634C16.3538 11.473 19.2795 10.1739 22.3733 10.018C25.4671 9.86219 28.5086 10.8607 30.9081 12.8199C33.3075 14.7791 34.894 17.5595 35.36 20.6219C35.826 23.6844 35.1382 26.8108 33.43 29.395L43.6 39.57C45.6456 38.2188 48.0434 37.4989 50.495 37.5C53.045 37.5 55.41 38.26 57.39 39.57L67.565 29.395C65.8569 26.8108 65.1691 23.6844 65.6351 20.6219C66.101 17.5595 67.6875 14.7791 70.087 12.8199C72.4864 10.8607 75.5279 9.86219 78.6217 10.018C81.7155 10.1739 84.6412 11.473 86.8317 13.6634C89.0221 15.8538 90.3212 18.7795 90.477 21.8733C90.6328 24.9671 89.6344 28.0086 87.6752 30.4081C85.716 32.8075 82.9356 34.394 79.8731 34.86C76.8106 35.326 73.6842 34.6382 71.1 32.93L60.93 43.1C62.24 45.08 63 47.45 63 49.995C63 52.545 62.24 54.91 60.93 56.89L71.105 67.065C73.6892 65.3569 76.8156 64.6691 79.8781 65.1351C82.9406 65.601 85.721 67.1875 87.6802 69.587C89.6394 71.9864 90.6378 75.0279 90.482 78.1217C90.3261 81.2155 89.0271 84.1412 86.8367 86.3317C84.6462 88.5221 81.7205 89.8212 78.6267 89.977C75.5329 90.1328 72.4914 89.1344 70.092 87.1752C67.6925 85.216 66.106 82.4356 65.6401 79.3731C65.1741 76.3106 65.8619 73.1842 67.57 70.6L57.395 60.425C55.3494 61.7762 52.9516 62.4961 50.5 62.495C47.95 62.495 45.585 61.735 43.605 60.425L33.43 70.6C35.1382 73.1842 35.826 76.3106 35.36 79.3731C34.894 82.4356 33.3075 85.216 30.9081 87.1752C28.5086 89.1344 25.4671 90.1328 22.3733 89.977C19.2795 89.8212 16.3538 88.5221 14.1634 86.3317C11.973 84.1412 10.6739 81.2155 10.518 78.1217C10.3622 75.0279 11.3607 71.9864 13.3199 69.587C15.2791 67.1875 18.0595 65.601 21.1219 65.1351C24.1844 64.6691 27.3108 65.3569 29.895 67.065L40.07 56.89C38.7197 54.8458 37.9999 52.4499 38 50C38 47.45 38.76 45.085 40.07 43.105L29.895 32.93ZM30.5 22.5C30.5 20.5109 29.7098 18.6032 28.3033 17.1967C26.8968 15.7902 24.9891 15 23 15C21.0109 15 19.1032 15.7902 17.6967 17.1967C16.2902 18.6032 15.5 20.5109 15.5 22.5C15.5 24.4891 16.2902 26.3968 17.6967 27.8033C19.1032 29.2098 21.0109 30 23 30C24.9891 30 26.8968 29.2098 28.3033 27.8033C29.7098 26.3968 30.5 24.4891 30.5 22.5ZM85.5 22.5C85.5 20.5109 84.7098 18.6032 83.3033 17.1967C81.8968 15.7902 79.9891 15 78 15C76.0109 15 74.1032 15.7902 72.6967 17.1967C71.2902 18.6032 70.5 20.5109 70.5 22.5C70.5 24.4891 71.2902 26.3968 72.6967 27.8033C74.1032 29.2098 76.0109 30 78 30C79.9891 30 81.8968 29.2098 83.3033 27.8033C84.7098 26.3968 85.5 24.4891 85.5 22.5ZM23 85C24.9891 85 26.8968 84.2098 28.3033 82.8033C29.7098 81.3968 30.5 79.4891 30.5 77.5C30.5 75.5109 29.7098 73.6032 28.3033 72.1967C26.8968 70.7902 24.9891 70 23 70C21.0109 70 19.1032 70.7902 17.6967 72.1967C16.2902 73.6032 15.5 75.5109 15.5 77.5C15.5 79.4891 16.2902 81.3968 17.6967 82.8033C19.1032 84.2098 21.0109 85 23 85ZM85.5 77.5C85.5 75.5109 84.7098 73.6032 83.3033 72.1967C81.8968 70.7902 79.9891 70 78 70C76.0109 70 74.1032 70.7902 72.6967 72.1967C71.2902 73.6032 70.5 75.5109 70.5 77.5C70.5 79.4891 71.2902 81.3968 72.6967 82.8033C74.1032 84.2098 76.0109 85 78 85C79.9891 85 81.8968 84.2098 83.3033 82.8033C84.7098 81.3968 85.5 79.4891 85.5 77.5ZM58 50C58 48.0109 57.2098 46.1032 55.8033 44.6967C54.3968 43.2902 52.4891 42.5 50.5 42.5C48.5109 42.5 46.6032 43.2902 45.1967 44.6967C43.7902 46.1032 43 48.0109 43 50C43 51.9891 43.7902 53.8968 45.1967 55.3033C46.6032 56.7098 48.5109 57.5 50.5 57.5C52.4891 57.5 54.3968 56.7098 55.8033 55.3033C57.2098 53.8968 58 51.9891 58 50Z" fill="#FF9606"/>
</svg>
