<svg width="75" height="120" viewBox="0 0 75 120" fill="none" xmlns="http://www.w3.org/2000/svg">
<g clip-path="url(#clip0_1_895)">
<path d="M37.4659 0L36.6616 2.73381L36.6616 82.0627L37.4659 82.8656L74.2895 61.0993L37.4659 0Z" fill="#343434"/>
<path d="M37.4676 0.000610352L0.644043 61.0999L37.4676 82.8665V44.3626L37.4676 0.000610352Z" fill="#8C8C8C"/>
<path d="M37.4676 89.8402L37.0144 90.3927L37.0144 118.651L37.4676 119.975L74.3131 68.0848L37.4676 89.8402Z" fill="#3C3C3B"/>
<path d="M37.4681 119.973L37.4681 89.8373L0.644531 68.0819L37.4681 119.973Z" fill="#8C8C8C"/>
<path d="M37.4666 82.8649L74.2896 61.0988L37.4666 44.3616L37.4666 82.8649Z" fill="#141414"/>
<path d="M0.643799 61.0996L37.4668 82.8656L37.4668 44.3623L0.643799 61.0996Z" fill="#393939"/>
</g>
<defs>
<clipPath id="clip0_1_895">
<rect width="73.6691" height="120" fill="white" transform="translate(0.643311)"/>
</clipPath>
</defs>
</svg>
