<svg width="36" height="34" viewBox="0 0 36 34" fill="none" xmlns="http://www.w3.org/2000/svg">
<g clip-path="url(#clip0_6_168)">
<path d="M35.1655 0L19.7183 11.5145L22.5908 4.72869L35.1655 0Z" fill="#E17726"/>
<path d="M0.870539 0.0136719L13.4116 4.72961L16.1392 11.6044L0.870539 0.0136719ZM28.949 24.4883L35.7765 24.6192L33.3904 32.7851L25.0593 30.4744L28.949 24.4883ZM7.05073 24.4883L10.9259 30.4744L2.60895 32.7853L0.237305 24.6192L7.05073 24.4883Z" fill="#E27625"/>
<path d="M15.7678 9.85325L16.0468 18.9317L7.69775 18.549L10.0726 14.9396L10.1027 14.9049L15.7678 9.85325ZM20.1445 9.75195L25.896 14.9052L25.9258 14.9398L28.3007 18.5492L19.9535 18.9317L20.1445 9.75195ZM11.1699 24.5146L15.7287 28.093L10.4331 30.6686L11.1699 24.5146ZM24.8297 24.514L25.5512 30.6688L20.2703 28.0927L24.8297 24.514Z" fill="#E27625"/>
<path d="M20.3877 27.7554L25.7465 30.3694L20.7618 32.7559L20.8136 31.1786L20.3877 27.7554ZM15.6111 27.7565L15.2021 31.1528L15.2357 32.7541L10.2393 30.3694L15.6111 27.7565Z" fill="#D5BFB2"/>
<path d="M14.0636 20.1167L15.4639 23.0815L10.6963 21.6745L14.0636 20.1167ZM21.9364 20.117L25.3196 21.6745L20.5364 23.0811L21.9364 20.117Z" fill="#233447"/>
<path d="M11.5355 24.4841L10.7649 30.8647L6.63428 24.6236L11.5355 24.4841ZM24.4659 24.4842L29.3673 24.6236L25.2212 30.865L24.4659 24.4842ZM28.4226 18.188L24.8556 21.8502L22.1054 20.5841L20.7887 23.3727L19.9256 18.5774L28.4226 18.188ZM7.57675 18.188L16.0754 18.5774L15.2121 23.3727L13.8952 20.5846L11.1596 21.8504L7.57675 18.188Z" fill="#CC6228"/>
<path d="M7.33582 17.4366L11.3715 21.562L11.5113 25.6348L7.33582 17.4366ZM28.6682 17.4292L24.4852 25.642L24.6427 21.562L28.6682 17.4292ZM15.8775 17.6879L16.0399 18.7178L16.4413 21.2835L16.1832 29.1637L14.9633 22.8334L14.9629 22.7679L15.8775 17.6879ZM20.1203 17.6736L21.0373 22.7679L21.0369 22.8334L19.8139 29.1796L19.7655 27.5922L19.5747 21.2368L20.1203 17.6736Z" fill="#E27525"/>
<path d="M25.0008 21.3979L24.8643 24.9365L20.607 28.278L19.7464 27.6654L20.711 22.6596L25.0008 21.3979ZM11.0127 21.3979L15.2876 22.6596L16.2522 27.6654L15.3916 28.278L11.1342 24.9362L11.0127 21.3979Z" fill="#F5841F"/>
<path d="M9.4248 29.5884L14.8715 32.1882L14.8484 31.078L15.3042 30.675H20.6949L21.1671 31.0766L21.1323 32.186L26.5445 29.5949L23.9109 31.7873L20.7264 33.9907H15.2605L12.0781 31.7783L9.4248 29.5884Z" fill="#C0AC9D"/>
<path d="M19.9968 27.4097L20.7668 27.9578L21.2181 31.585L20.565 31.0295H15.4356L14.7949 31.5962L15.2314 27.9581L16.0018 27.4097H19.9968Z" fill="#161616"/>
<path d="M34.1457 0.318848L36 5.92276L34.842 11.589L35.6666 12.2298L34.5507 13.0874L35.3894 13.7399L34.2789 14.7586L34.9606 15.256L33.1514 17.3847L25.7306 15.208L25.6663 15.1733L20.3188 10.6289L34.1457 0.318848ZM1.85428 0.318848L15.6814 10.6289L10.3337 15.1733L10.2694 15.208L2.84864 17.3847L1.03936 15.256L1.72055 14.7591L0.610734 13.7399L1.44773 13.0881L0.315141 12.2281L1.17084 11.5869L0 5.92304L1.85428 0.318848Z" fill="#763E1A"/>
<path d="M25.3682 14.732L33.231 17.0382L35.7855 24.9695H29.0462L24.4027 25.0284L27.7797 18.3973L25.3682 14.732ZM10.633 14.732L8.22114 18.3973L11.5985 25.0284L6.9572 24.9695H0.22998L2.77009 17.0383L10.633 14.732ZM22.9765 4.69092L20.7773 10.6748L20.3105 18.7583L20.1319 21.292L20.1177 27.7645H15.8834L15.8696 21.3042L15.6904 18.7562L15.2236 10.6748L13.0246 4.69092H22.9765Z" fill="#F5841F"/>
</g>
<defs>
<clipPath id="clip0_6_168">
<rect width="36" height="34" fill="white"/>
</clipPath>
</defs>
</svg>
