<svg width="48" height="48" viewBox="0 0 48 48" fill="none" xmlns="http://www.w3.org/2000/svg">
<rect width="48" height="48" rx="4" fill="#AB9FF2" fill-opacity="0.3"/>
<path d="M12.5505 36C16.3785 36 19.2555 32.802 20.9715 30.2745C20.7667 30.8026 20.657 31.3627 20.6475 31.929C20.6475 33.405 21.5295 34.4565 23.2695 34.4565C25.659 34.4565 28.2105 32.4435 29.5335 30.2745C29.4443 30.5565 29.3973 30.8502 29.394 31.146C29.394 32.175 29.997 32.8245 31.227 32.8245C35.1015 32.8245 39 26.2245 39 20.4555C39 15.9585 36.633 12 30.693 12C20.253 12 9 24.258 9 32.175C9 35.2845 10.74 36 12.5505 36ZM27.0975 19.962C27.0975 18.8445 27.747 18.0615 28.698 18.0615C29.6265 18.0615 30.276 18.8445 30.276 19.962C30.276 21.081 29.6265 21.8865 28.698 21.8865C27.747 21.8865 27.0975 21.081 27.0975 19.962ZM32.0625 19.962C32.0625 18.8445 32.712 18.0615 33.663 18.0615C34.593 18.0615 35.241 18.8445 35.241 19.962C35.241 21.081 34.5915 21.8865 33.663 21.8865C32.712 21.8865 32.0625 21.081 32.0625 19.962Z" fill="#AB9FF2"/>
</svg>
