<svg width="561" height="431" viewBox="0 0 561 431" fill="none" xmlns="http://www.w3.org/2000/svg">
<path d="M40.6784 183.087L142.984 255.997C142.984 255.997 204.203 170.095 294.556 232.189C341.498 264.413 343.886 311.927 337.088 342.156C329.173 377.252 303.794 405.592 270.73 419.827C232.997 436.078 175.127 438.191 114.84 376.902L-48.2608 604.378L52.9114 676.479L149.215 541.346C149.215 541.346 317.23 605.789 428.709 449.363C535.327 299.757 437.377 181.228 373.833 132.792C338.479 105.86 326.481 94.9585 277.2 69.4277C214.367 36.937 119.857 69.4356 40.6784 183.087Z" fill="#FF9606"/>
<path opacity="0.1" d="M40.6784 183.087L142.984 255.997C142.984 255.997 204.203 170.095 294.556 232.189C341.498 264.413 343.886 311.927 337.088 342.156C329.173 377.252 303.794 405.592 270.73 419.827C232.997 436.078 175.127 438.191 114.84 376.902L-48.2608 604.378L52.9114 676.479L149.215 541.346C149.215 541.346 317.23 605.789 428.709 449.363C535.327 299.757 437.377 181.228 373.833 132.792C338.479 105.86 326.481 94.9585 277.2 69.4277C214.367 36.937 119.857 69.4356 40.6784 183.087Z" fill="black"/>
<path d="M-1.71669 152.876L100.607 225.798C100.607 225.798 161.825 139.896 252.179 201.99C299.12 234.214 301.508 281.728 294.693 311.945C286.795 347.053 261.416 375.393 228.352 389.628C190.62 405.879 134.051 404.779 73.7263 343.543L-90.6382 574.179L10.534 646.28L106.837 511.147C106.837 511.147 274.853 575.59 386.331 419.164C492.949 269.558 383.531 139.197 326.116 98.2792C282.161 67.035 124.975 -28.9839 -1.71669 152.876Z" fill="#FF9606"/>
<path opacity="0.3" d="M-1.71669 152.876L100.607 225.798C100.607 225.798 161.825 139.896 252.179 201.99C299.12 234.214 301.508 281.728 294.693 311.945C286.795 347.053 261.416 375.393 228.352 389.628C190.62 405.879 134.051 404.779 73.7263 343.543L-90.6382 574.179L10.534 646.28L106.837 511.147C106.837 511.147 274.853 575.59 386.331 419.164C492.949 269.558 383.531 139.197 326.116 98.2792C282.161 67.035 124.975 -28.9839 -1.71669 152.876Z" fill="black"/>
<path d="M263.396 210.676C262.858 210.359 262.349 209.995 261.873 209.59C260.863 208.871 259.65 207.499 257.767 206.13C252.596 202.048 247.063 198.444 241.238 195.365C232.639 190.743 223.58 187.035 214.208 184.303C208.68 182.696 203.046 181.484 197.347 180.675C191.246 179.717 185.058 179.437 178.896 179.84C172.74 180.291 166.661 181.483 160.791 183.392C155.294 185.107 149.916 187.182 144.691 189.602C135.871 193.781 127.555 198.949 119.903 205.007C114.732 209.09 109.939 213.632 105.584 218.577C104.033 220.303 102.92 221.753 102.16 222.708C101.796 223.22 101.385 223.696 100.932 224.13C101.248 223.591 101.611 223.081 102.018 222.607C102.737 221.597 103.798 220.109 105.308 218.327C109.56 213.222 114.31 208.554 119.487 204.39C127.121 198.186 135.459 192.903 144.329 188.649C149.59 186.187 155.01 184.079 160.552 182.34C166.494 180.384 172.655 179.167 178.895 178.717C185.135 178.304 191.403 178.586 197.581 179.559C203.334 180.347 209.024 181.545 214.606 183.144C224.039 185.935 233.143 189.736 241.76 194.482C247.583 197.64 253.078 201.368 258.164 205.611C259.559 206.746 260.888 207.961 262.143 209.249C262.594 209.694 263.013 210.171 263.396 210.676Z" fill="#263238"/>
<path d="M430.554 302.321C430.554 302.321 430.518 302.108 430.495 301.691C430.472 301.274 430.481 300.586 430.493 299.82L430.518 292.625C430.524 291.08 430.59 289.338 430.54 287.459L430.116 281.307L429.661 274.224C429.443 271.718 428.958 269.101 428.573 266.343C428.188 263.584 427.843 260.694 427.236 257.723C426.628 254.753 425.922 251.658 425.2 248.473C424.839 246.88 424.496 245.3 424.103 243.603L422.663 238.651C421.676 235.276 420.706 231.914 419.542 228.413C414.357 213.305 407.859 198.681 400.122 184.708L393.79 173.838L387.05 163.692C384.917 160.276 382.466 157.193 380.197 154.08C377.928 150.967 375.742 147.887 373.258 145.075L366.368 136.826C364.14 134.143 361.728 131.755 359.553 129.297C357.378 126.839 355.241 124.515 352.993 122.459L346.639 116.381C342.7 112.426 338.704 109.337 335.378 106.433C333.707 105.028 332.075 103.571 330.655 102.452L326.514 99.3412L320.807 94.9801L319.284 93.8944L318.77 93.5282C318.959 93.623 319.132 93.7465 319.284 93.8944L320.807 94.9801L326.653 99.1463L330.887 102.164C332.428 103.262 333.96 104.674 335.678 106.086C339.007 108.912 343.099 112.015 347.064 115.936L353.468 121.943C355.728 123.981 357.79 126.411 360.071 128.758C362.352 131.105 364.691 133.52 366.939 136.324L373.877 144.581C376.338 147.35 378.461 150.519 380.828 153.569C383.196 156.618 385.642 159.671 387.712 163.176L394.505 173.36L400.877 184.285C408.667 198.315 415.175 213.019 420.321 228.22C421.503 231.733 422.384 235.22 423.384 238.577L424.975 243.317C425.406 244.96 425.749 246.54 426.06 248.204L427.977 257.584C428.486 260.618 428.818 263.525 429.245 266.261C429.673 268.997 430.055 271.647 430.26 274.17L430.584 281.213L430.935 287.393C430.954 289.277 430.858 291.024 430.783 292.627C430.688 295.685 430.607 298.085 430.536 299.797L430.447 301.683C430.51 301.89 430.546 302.104 430.554 302.321Z" fill="#263238"/>
</svg>
