<svg width="121" height="120" viewBox="0 0 121 120" fill="none" xmlns="http://www.w3.org/2000/svg">
<path d="M17.3191 75.5349C17.3191 66.3499 21.8691 55.4249 24.1391 51.1049C20.6691 40.1949 15.0291 17.3649 20.2391 13.3299C25.4391 9.29494 38.0141 22.7049 43.6491 29.9099C45.9491 28.6899 52.4741 26.2599 60.1641 26.2599C67.8541 26.2599 75.0891 28.6899 77.7491 29.9099C92.8991 12.9499 99.2391 11.7899 100.514 13.3299C105.869 20.0999 100.284 41.3299 96.8241 51.1049C99.0591 54.6849 103.524 64.5899 103.524 75.5399C103.524 89.2249 83.8491 108.845 60.0791 108.845C36.3091 108.845 17.3191 87.0249 17.3191 75.5349Z" fill="#EB9A2E"/>
<path fill-rule="evenodd" clip-rule="evenodd" d="M25.494 45.405C23.464 38.535 20.014 23.84 22.449 20.05C24.889 16.25 34.659 25.75 39.244 30.975C36.604 33.08 30.154 38.92 25.494 45.405ZM95.789 45.405C97.819 38.535 101.274 23.84 98.839 20.05C96.394 16.25 86.624 25.75 82.039 30.975C84.679 33.08 91.129 38.92 95.789 45.405Z" fill="#E58014"/>
<path d="M44.7841 54.895C42.5089 55.3087 40.1935 55.458 37.8841 55.34C37.4558 55.3296 37.0463 55.1626 36.7329 54.8704C36.4196 54.5783 36.2243 54.1814 36.1841 53.755C35.9691 50.94 37.0341 47.19 40.2191 47.335C44.0441 47.515 45.7191 50.35 46.3041 52.675C46.5641 53.725 45.8291 54.705 44.7791 54.895M76.1691 54.895C78.8841 55.395 81.3991 55.43 83.0691 55.34C83.4973 55.3296 83.9069 55.1626 84.2202 54.8704C84.5335 54.5783 84.7288 54.1814 84.7691 53.755C84.9841 50.94 83.9191 47.19 80.7291 47.335C76.9041 47.515 75.2291 50.35 74.6441 52.675C74.3841 53.725 75.1191 54.705 76.1691 54.895Z" fill="#FEFFF7"/>
<path d="M57.7541 108.28C25.0541 103.295 17.1741 84.33 17.3191 75.48C34.2191 74.23 40.0191 80.77 40.7991 84.19C41.2491 78.975 45.6441 68.54 59.6241 68.54C73.5991 68.54 77.9991 78.975 78.4491 84.19C81.4156 80.4343 85.4709 77.6879 90.0594 76.3273C94.6479 74.9667 99.5448 75.0585 104.079 76.59C96.0791 103.185 69.8641 108.8 57.7541 108.28Z" fill="#EAEAE8"/>
<path fill-rule="evenodd" clip-rule="evenodd" d="M64.7091 73.5599H55.6441C55.0368 73.5665 54.4566 73.8131 54.0304 74.2459C53.6042 74.6787 53.3665 75.2625 53.3691 75.8699V80.3499C53.4991 81.7999 54.8441 84.5699 59.0491 85.0349V89.4849C58.7677 89.7421 58.5488 90.0602 58.4091 90.4149H52.9841V90.4749C52.4116 89.9446 51.779 89.4831 51.0991 89.0999C50.9658 89.0292 50.8099 89.0142 50.6656 89.0583C50.5212 89.1023 50.4002 89.2018 50.3291 89.3349C50.2575 89.4691 50.2415 89.6261 50.2845 89.772C50.3276 89.9179 50.4262 90.0411 50.5591 90.1149C50.9191 90.3149 51.4841 90.6749 51.9591 91.0899C52.2058 91.3033 52.4058 91.5099 52.5591 91.7099C52.6834 91.8411 52.7698 92.0036 52.8091 92.1799C52.8218 92.2936 52.8729 92.3995 52.9541 92.4799V94.9599C52.9541 95.2749 53.2041 95.5399 53.5191 95.5399C53.5947 95.5393 53.6693 95.5238 53.7388 95.4943C53.8083 95.4648 53.8713 95.4219 53.9243 95.368C53.9772 95.3141 54.019 95.2504 54.0473 95.1804C54.0756 95.1103 54.0898 95.0354 54.0891 94.9599V91.5649H66.2841V94.9599C66.2841 95.2749 66.5341 95.5399 66.8541 95.5399C66.9297 95.5429 67.005 95.5287 67.0743 95.4984C67.1435 95.4681 67.205 95.4225 67.2541 95.3649C67.3088 95.3127 67.3521 95.2498 67.3813 95.1801C67.4106 95.1105 67.4251 95.0355 67.4241 94.9599V92.1849L67.4391 92.0849L67.4491 92.0649C67.4875 91.9928 67.5345 91.9256 67.5891 91.8649C67.7838 91.6537 67.9962 91.4597 68.2241 91.2849C68.7491 90.8599 69.3841 90.4349 69.8141 90.1849C69.946 90.106 70.0412 89.9779 70.0787 89.8288C70.1162 89.6798 70.093 89.5219 70.0141 89.3899C69.9784 89.3239 69.9295 89.2658 69.8705 89.2194C69.8115 89.1729 69.7436 89.139 69.671 89.1198C69.5984 89.1006 69.5226 89.0965 69.4483 89.1077C69.3741 89.1189 69.3029 89.1452 69.2391 89.1849C68.6391 89.5449 68.0625 89.9449 67.5091 90.3849L67.4691 90.4099H61.7741C61.6617 90.1887 61.5091 89.9903 61.3241 89.8249V85.0599C65.6941 84.6749 66.9341 81.8249 66.9941 80.3499V75.8699C66.9968 75.2617 66.7584 74.6771 66.3311 74.2442C65.9038 73.8112 65.3224 73.5652 64.7141 73.5599M56.3741 93.2249L57.5791 94.6999L58.4991 93.8249L60.1691 95.4399L61.8891 93.8249L62.6941 94.6999L63.8091 93.2249H56.3741Z" fill="#000001"/>
<path d="M35.4291 58.71C33.7541 58.05 33.7341 59.59 33.9391 60.445V61.73C33.9432 62.8928 34.2968 64.0275 34.9539 64.9869C35.611 65.9463 36.5413 66.6859 37.6241 67.11C42.6941 69.02 51.2691 71.66 50.3291 68.895C49.0891 65.25 37.5191 59.535 35.4291 58.71ZM85.0641 58.71C86.7341 58.05 86.7591 59.59 86.5541 60.445V61.73C86.5499 62.8928 86.1964 64.0275 85.5393 64.9869C84.8822 65.9463 83.9519 66.6859 82.8691 67.11C77.7991 69.02 69.2191 71.66 70.1641 68.895C71.3991 65.25 82.9741 59.535 85.0641 58.71Z" fill="black"/>
<path fill-rule="evenodd" clip-rule="evenodd" d="M43.6191 27.25C38.6991 21.165 32.6041 14.335 25.0741 11.35C7.49909 4.35497 19.9541 44.575 21.7941 50.375C19.3841 55.055 14.8191 66.01 14.8191 75.26C14.8191 95.295 43.7591 109.995 60.4191 109.995C77.8191 109.995 105.969 95.775 105.969 75.26C105.969 64.405 101.839 54.825 99.4141 50.74C103.149 40.09 110.049 20.715 102.594 11.15C97.5691 5.13997 79.7641 24.455 77.5941 26.835C74.3441 25.5 67.5441 23.91 60.1591 23.91C52.9041 23.91 46.5941 25.895 43.6191 27.25ZM20.1941 13.475C19.7791 13.79 19.3941 14.36 19.0941 15.275C18.7941 16.1816 18.6058 17.3333 18.5291 18.73C18.3841 21.515 18.6991 25.025 19.3091 28.81C20.5091 36.37 22.8091 44.81 24.5591 50.275L24.7141 50.75L24.4791 51.185C22.1991 55.485 17.6741 66.29 17.6741 75.27C17.6741 77.87 18.7741 81.205 20.9141 84.805C23.0341 88.38 26.1291 92.125 29.9791 95.535C37.6841 102.345 48.6591 106.9 60.4191 106.9C72.2191 106.9 82.6791 102.87 90.5441 96.34C98.4541 89.77 103.164 81.67 103.164 75.27C103.164 64.505 98.7141 54.735 96.5241 51.26L96.2241 50.775L96.4191 50.24C98.1641 45.36 100.439 37.62 101.604 30.27C102.189 26.6 102.489 23.07 102.314 20.06C102.139 17.04 101.504 14.73 100.379 13.31C100.349 13.285 100.129 13.135 99.4141 13.245C98.5891 13.37 97.3191 13.83 95.5341 14.91C91.9691 17.06 86.5841 21.53 78.8991 30.045L78.3491 30.66L77.5991 30.32C74.9991 29.14 67.7991 26.74 60.1591 26.74C54.3041 26.74 48.2491 27.995 43.0391 30.725C39.2891 25.975 35.2191 21.41 30.5391 17.555C28.4891 15.855 23.1541 11.205 20.1941 13.475Z" fill="black"/>
</svg>
