<svg width="151" height="120" viewBox="0 0 151 120" fill="none" xmlns="http://www.w3.org/2000/svg">
<path d="M119.909 37.2349C119.125 37.7999 118.113 38.1195 117.058 38.1349H16.8467C13.2886 38.1349 11.4938 34.8849 13.9577 32.9849L30.4166 20.2949C31.1815 19.7042 32.1987 19.3681 33.2619 19.3549H133.867C137.456 19.3549 139.213 22.6349 136.718 24.5449L119.909 37.2349Z" fill="url(#paint0_linear_1_902)"/>
<path d="M119.909 99.7697C119.121 100.326 118.109 100.636 117.058 100.645H16.8467C13.2886 100.645 11.4938 97.4197 13.9577 95.5147L30.4166 82.7947C31.1848 82.2125 32.2034 81.8885 33.2619 81.8897H133.867C137.456 81.8897 139.213 85.1397 136.718 87.0397L119.909 99.7697Z" fill="url(#paint1_linear_1_902)"/>
<path d="M119.909 51.515C119.121 50.959 118.109 50.6484 117.058 50.64H16.8467C13.2886 50.64 11.4938 53.865 13.9577 55.765L30.4166 68.49C31.1988 69.0539 32.209 69.3734 33.2619 69.39H133.867C137.456 69.39 139.213 66.14 136.718 64.24L119.909 51.515Z" fill="url(#paint2_linear_1_902)"/>
<defs>
<linearGradient id="paint0_linear_1_902" x1="12.8258" y1="299.115" x2="141.071" y2="297.645" gradientUnits="userSpaceOnUse">
<stop stop-color="#599DB0"/>
<stop offset="1" stop-color="#47F8C3"/>
</linearGradient>
<linearGradient id="paint1_linear_1_902" x1="12.8258" y1="44.2647" x2="140.253" y2="43.0447" gradientUnits="userSpaceOnUse">
<stop stop-color="#C44FE2"/>
<stop offset="1" stop-color="#73B0D0"/>
</linearGradient>
<linearGradient id="paint2_linear_1_902" x1="20.0235" y1="60.015" x2="133.041" y2="60.015" gradientUnits="userSpaceOnUse">
<stop stop-color="#778CBF"/>
<stop offset="1" stop-color="#5DCDC9"/>
</linearGradient>
</defs>
</svg>
