<svg width="121" height="120" viewBox="0 0 121 120" fill="none" xmlns="http://www.w3.org/2000/svg">
<g clip-path="url(#clip0_1_912)">
<path d="M60.394 120C93.5311 120 120.394 93.1371 120.394 60C120.394 26.8629 93.5311 0 60.394 0C27.257 0 0.394043 26.8629 0.394043 60C0.394043 93.1371 27.257 120 60.394 120Z" fill="#3E73C4"/>
<path d="M75.4766 67.965C75.4766 60 70.6766 57.27 61.0766 56.13C54.2216 55.2188 52.8529 53.4 52.8529 50.2125C52.8529 47.025 55.1404 44.9775 59.7079 44.9775C63.8216 44.9775 66.1091 46.3425 67.2491 49.7588C67.3688 50.0885 67.5862 50.3739 67.8723 50.5769C68.1584 50.7799 68.4996 50.8909 68.8504 50.895H72.5066C72.7178 50.9007 72.9279 50.8633 73.1243 50.7853C73.3206 50.7073 73.499 50.5903 73.6488 50.4412C73.7985 50.2922 73.9164 50.1143 73.9953 49.9184C74.0742 49.7224 74.1125 49.5125 74.1079 49.3013V49.0763C73.661 46.6046 72.4105 44.3498 70.5504 42.662C68.6903 40.9741 66.3249 39.9478 63.8216 39.7425V34.2825C63.8216 33.3713 63.1354 32.6888 61.9954 32.46H58.5641C57.6529 32.46 56.9666 33.1425 56.7379 34.2825V39.5175C49.8791 40.425 45.5404 44.9775 45.5404 50.67C45.5404 58.1775 50.1079 61.1363 59.7079 62.2763C66.1091 63.4125 68.1641 64.7813 68.1641 68.4225C68.1641 72.06 64.9654 74.565 60.6229 74.565C54.6791 74.565 52.6241 72.0638 51.9379 68.6475C51.7129 67.74 51.0229 67.2825 50.3366 67.2825H46.4516C46.2408 67.2774 46.0311 67.3151 45.8352 67.3933C45.6393 67.4716 45.4613 67.5887 45.312 67.7377C45.1626 67.8867 45.0451 68.0644 44.9664 68.2601C44.8877 68.4558 44.8495 68.6654 44.8541 68.8763V69.1013C45.7654 74.7938 49.4254 78.8888 56.9666 80.0288V85.4925C56.9666 86.4 57.6529 87.0863 58.7929 87.3113H62.2241C63.1354 87.3113 63.8216 86.6288 64.0504 85.4925V80.025C70.9091 78.8888 75.4766 74.1075 75.4766 67.9613V67.965Z" fill="white"/>
<path d="M48.7391 91.8637C30.9116 85.4887 21.7691 65.6887 28.3991 48.165C31.8266 38.6025 39.3679 31.3237 48.7391 27.9075C49.6541 27.4537 50.1079 26.7713 50.1079 25.6313V22.4438C50.1079 21.5363 49.6541 20.8538 48.7391 20.625C48.5104 20.625 48.0529 20.625 47.8241 20.85C42.6807 22.4562 37.9059 25.064 33.7745 28.5231C29.6431 31.9823 26.2367 36.2246 23.7516 41.0056C21.2664 45.7866 19.7515 51.0121 19.2942 56.381C18.8368 61.7499 19.446 67.1562 21.0866 72.2887C25.1966 85.0387 35.0254 94.8262 47.8241 98.9212C48.7391 99.375 49.6541 98.9212 49.8791 98.01C50.1079 97.785 50.1079 97.5525 50.1079 97.0987V93.9112C50.1079 93.2287 49.4254 92.3213 48.7391 91.8637ZM72.9641 20.8537C72.0491 20.3962 71.1341 20.8537 70.9091 21.7612C70.6804 21.99 70.6804 22.2188 70.6804 22.6725V25.86C70.6804 26.7712 71.3629 27.6787 72.0491 28.1362C89.8766 34.5112 99.0191 54.3113 92.3891 71.835C88.9616 81.3975 81.4204 88.6763 72.0491 92.0925C71.1341 92.5462 70.6804 93.2288 70.6804 94.3688V97.5562C70.6804 98.4637 71.1341 99.1462 72.0491 99.375C72.2779 99.375 72.7354 99.375 72.9641 99.15C78.1075 97.5438 82.8824 94.936 87.0138 91.4769C91.1452 88.0177 94.5516 83.7755 97.0367 78.9944C99.5219 74.2134 101.037 68.9879 101.494 63.619C101.951 58.2501 101.342 52.8438 99.7016 47.7112C95.5916 34.7362 85.5341 24.9487 72.9641 20.8537Z" fill="white"/>
</g>
<defs>
<clipPath id="clip0_1_912">
<rect width="120" height="120" fill="white" transform="translate(0.394043)"/>
</clipPath>
</defs>
</svg>
