<svg width="121" height="120" viewBox="0 0 121 120" fill="none" xmlns="http://www.w3.org/2000/svg">
<g clip-path="url(#clip0_1_908)">
<path d="M60.394 120C93.5311 120 120.394 93.1371 120.394 60C120.394 26.8629 93.5311 0 60.394 0C27.257 0 0.394043 26.8629 0.394043 60C0.394043 93.1371 27.257 120 60.394 120Z" fill="#26A17B"/>
<path fill-rule="evenodd" clip-rule="evenodd" d="M67.6015 65.1862V65.1787C67.189 65.2087 65.0628 65.3362 60.319 65.3362C56.5315 65.3362 53.8653 65.2237 52.9278 65.1787V65.19C38.3478 64.5487 27.4653 62.01 27.4653 58.9725C27.4653 55.935 38.3478 53.4 52.9278 52.7475V62.6625C53.8803 62.73 56.6103 62.8912 60.3828 62.8912C64.909 62.8912 67.1778 62.7037 67.6015 62.6662V52.755C82.1515 53.4037 93.0078 55.9425 93.0078 58.9725C93.0078 62.01 82.1515 64.5412 67.6015 65.1862ZM67.6015 51.7237V42.8512H87.904V29.3212H32.6253V42.8512H52.9278V51.72C36.4278 52.4775 24.019 55.7475 24.019 59.6625C24.019 63.5775 36.4278 66.8437 52.9278 67.605V96.0375H67.6015V67.5975C84.0753 66.84 96.454 63.5737 96.454 59.6625C96.454 55.7512 84.0753 52.485 67.6015 51.7237Z" fill="white"/>
</g>
<defs>
<clipPath id="clip0_1_908">
<rect width="120" height="120" fill="white" transform="translate(0.394043)"/>
</clipPath>
</defs>
</svg>
