<svg width="211" height="66" viewBox="0 0 211 66" fill="none" xmlns="http://www.w3.org/2000/svg">
<path d="M23.0274 29.6155L10.1974 13.3214C9.2586 12.1291 10.1079 10.3794 11.6254 10.3794H51.1594C52.6064 10.3794 53.4732 11.988 52.6775 13.1965L35.2098 39.7264C34.5784 40.6854 33.227 40.826 32.4118 40.0174L26.1292 33.7859" stroke="#FF9606" stroke-width="2.31539"/>
<path d="M43.4711 34.4243L59.4169 9.81467C60.3513 8.37248 59.3162 6.46833 57.5977 6.46833H36.0745C34.8773 6.46833 33.9069 5.49785 33.9069 4.3007V0.0800781" stroke="#FF9606" stroke-width="2.31539"/>
<path d="M19.6887 31.7364L2.72555 9.96834C1.61625 8.54481 2.63062 6.46833 4.43534 6.46833H24.1855C25.3827 6.46833 26.3531 5.49785 26.3531 4.3007V0.0800781" stroke="#FF9606" stroke-width="2.31539"/>
<path d="M43.4038 33.4083L60.1385 55.6527C61.2132 57.0813 60.194 59.1235 58.4063 59.1235H36.0987C34.9015 59.1235 33.931 60.0939 33.931 61.2911V65.5117" stroke="#FF9606" stroke-width="2.31539"/>
<path d="M19.6887 30.6746L4.29032 55.824C3.40597 57.2683 4.44537 59.1235 6.13896 59.1235H24.1855C25.3827 59.1235 26.3531 60.0939 26.3531 61.2911V65.5117" stroke="#FF9606" stroke-width="2.31539"/>
<path d="M40.2891 36.2823L52.2944 51.9914C53.2084 53.1874 52.3556 54.9126 50.8502 54.9126L12.703 54.9126C11.2684 54.9126 10.3993 53.3284 11.17 52.1185L28.0344 25.6452C28.664 24.657 30.0503 24.5139 30.8685 25.3526L36.871 31.5061" stroke="#FF9606" stroke-width="2.31539"/>
<path d="M73.3526 40.5996V38.1685L83.3783 26.0821L83.8413 27.4482H73.5379V24.3919H87.1755V26.823L77.173 38.9094L76.7099 37.5433H87.5228V40.5996H73.3526ZM97.3598 40.5996V38.1685L97.1282 37.6359V33.283C97.1282 32.5112 96.889 31.9092 96.4105 31.477C95.9474 31.0448 95.2296 30.8287 94.2571 30.8287C93.5934 30.8287 92.9374 30.9367 92.2891 31.1528C91.6562 31.3535 91.1159 31.6313 90.6683 31.9864L89.3717 29.4626C90.0509 28.9841 90.869 28.6136 91.826 28.3512C92.783 28.0888 93.7555 27.9576 94.7434 27.9576C96.642 27.9576 98.1161 28.4052 99.1658 29.3005C100.215 30.1958 100.74 31.5927 100.74 33.4914V40.5996H97.3598ZM93.5625 40.7848C92.5901 40.7848 91.7565 40.6228 91.0619 40.2986C90.3673 39.959 89.8348 39.5037 89.4643 38.9325C89.0938 38.3614 88.9086 37.7208 88.9086 37.0108C88.9086 36.2698 89.0861 35.6215 89.4411 35.0658C89.8116 34.5101 90.3904 34.0779 91.1777 33.7692C91.9649 33.4451 92.9914 33.283 94.2571 33.283H97.5682V35.39H94.6508C93.8018 35.39 93.2152 35.5289 92.8911 35.8068C92.5823 36.0846 92.428 36.4319 92.428 36.8487C92.428 37.3118 92.6055 37.6822 92.9605 37.9601C93.331 38.2225 93.8327 38.3537 94.4655 38.3537C95.0675 38.3537 95.6078 38.2148 96.0863 37.9369C96.5648 37.6436 96.9121 37.2191 97.1282 36.6634L97.6839 38.3305C97.4215 39.1332 96.943 39.7429 96.2484 40.1597C95.5538 40.5765 94.6585 40.7848 93.5625 40.7848ZM106.996 38.0527L107.089 33.6534L112.9 28.1428H117.207L111.627 33.8155L109.751 35.3437L106.996 38.0527ZM104.009 40.5996V23.4194H107.621V40.5996H104.009ZM113.294 40.5996L109.08 35.3668L111.349 32.5652L117.67 40.5996H113.294ZM126.709 40.5996V38.1685L126.478 37.6359V33.283C126.478 32.5112 126.238 31.9092 125.76 31.477C125.297 31.0448 124.579 30.8287 123.607 30.8287C122.943 30.8287 122.287 30.9367 121.638 31.1528C121.006 31.3535 120.465 31.6313 120.018 31.9864L118.721 29.4626C119.4 28.9841 120.218 28.6136 121.175 28.3512C122.132 28.0888 123.105 27.9576 124.093 27.9576C125.991 27.9576 127.465 28.4052 128.515 29.3005C129.565 30.1958 130.09 31.5927 130.09 33.4914V40.5996H126.709ZM122.912 40.7848C121.939 40.7848 121.106 40.6228 120.411 40.2986C119.717 39.959 119.184 39.5037 118.814 38.9325C118.443 38.3614 118.258 37.7208 118.258 37.0108C118.258 36.2698 118.435 35.6215 118.79 35.0658C119.161 34.5101 119.74 34.0779 120.527 33.7692C121.314 33.4451 122.341 33.283 123.607 33.283H126.918V35.39H124C123.151 35.39 122.565 35.5289 122.24 35.8068C121.932 36.0846 121.777 36.4319 121.777 36.8487C121.777 37.3118 121.955 37.6822 122.31 37.9601C122.68 38.2225 123.182 38.3537 123.815 38.3537C124.417 38.3537 124.957 38.2148 125.436 37.9369C125.914 37.6436 126.261 37.2191 126.478 36.6634L127.033 38.3305C126.771 39.1332 126.292 39.7429 125.598 40.1597C124.903 40.5765 124.008 40.7848 122.912 40.7848ZM138.452 40.7848C136.986 40.7848 135.844 40.4144 135.026 39.6735C134.208 38.9171 133.799 37.798 133.799 36.3161V25.3875H137.411V36.2698C137.411 36.7947 137.549 37.2037 137.827 37.497C138.105 37.7748 138.483 37.9138 138.962 37.9138C139.533 37.9138 140.019 37.7594 140.421 37.4507L141.393 39.9976C141.023 40.26 140.575 40.4607 140.05 40.5996C139.541 40.7231 139.008 40.7848 138.452 40.7848ZM131.877 31.1991V28.4207H140.513V31.1991H131.877ZM151.432 40.7385C150.212 40.7385 149.086 40.5379 148.051 40.1365C147.017 39.7198 146.122 39.1409 145.366 38.4C144.609 37.6591 144.015 36.7869 143.583 35.7836C143.166 34.7803 142.958 33.6843 142.958 32.4957C142.958 31.3072 143.166 30.2112 143.583 29.2079C144.015 28.2046 144.609 27.3324 145.366 26.5915C146.137 25.8506 147.04 25.2795 148.075 24.8781C149.109 24.4614 150.236 24.253 151.455 24.253C152.628 24.253 153.732 24.4536 154.766 24.855C155.8 25.2409 156.672 25.8274 157.382 26.6147L156.294 27.7029C155.63 27.0237 154.897 26.5375 154.095 26.2442C153.292 25.9355 152.427 25.7811 151.501 25.7811C150.529 25.7811 149.626 25.9509 148.792 26.2905C147.959 26.6147 147.233 27.0855 146.616 27.7029C145.998 28.3049 145.512 29.0149 145.157 29.8331C144.818 30.6357 144.648 31.5233 144.648 32.4957C144.648 33.4682 144.818 34.3635 145.157 35.1816C145.512 35.9843 145.998 36.6943 146.616 37.3118C147.233 37.9138 147.959 38.3846 148.792 38.7241C149.626 39.0483 150.529 39.2104 151.501 39.2104C152.427 39.2104 153.292 39.056 154.095 38.7473C154.897 38.4386 155.63 37.9446 156.294 37.2655L157.382 38.3537C156.672 39.1409 155.8 39.7352 154.766 40.1365C153.732 40.5379 152.62 40.7385 151.432 40.7385ZM166.893 28.3281C167.881 28.3281 168.745 28.521 169.486 28.9069C170.242 29.2774 170.829 29.8485 171.246 30.6203C171.678 31.3921 171.894 32.3645 171.894 33.5377V40.5996H170.25V33.6998C170.25 32.4186 169.926 31.4538 169.278 30.8055C168.645 30.1418 167.75 29.8099 166.592 29.8099C165.727 29.8099 164.971 29.9874 164.323 30.3424C163.69 30.682 163.196 31.1837 162.841 31.8474C162.501 32.4957 162.332 33.283 162.332 34.2091V40.5996H160.688V23.4194H162.332V31.778L162.007 31.1528C162.393 30.273 163.011 29.5861 163.86 29.0921C164.709 28.5827 165.72 28.3281 166.893 28.3281ZM183.952 40.5996V37.9138L183.883 37.4738V32.982C183.883 31.9478 183.589 31.1528 183.003 30.5971C182.432 30.0414 181.575 29.7636 180.433 29.7636C179.646 29.7636 178.897 29.8948 178.187 30.1572C177.477 30.4196 176.875 30.7669 176.381 31.1991L175.64 29.972C176.257 29.4472 176.998 29.0458 177.863 28.768C178.727 28.4747 179.638 28.3281 180.595 28.3281C182.169 28.3281 183.381 28.7217 184.23 29.5089C185.094 30.2807 185.527 31.4615 185.527 33.0514V40.5996H183.952ZM179.761 40.7154C178.851 40.7154 178.056 40.5687 177.377 40.2755C176.713 39.9667 176.203 39.55 175.848 39.0251C175.493 38.4849 175.316 37.8675 175.316 37.1728C175.316 36.54 175.462 35.9688 175.756 35.4594C176.064 34.9346 176.558 34.5179 177.238 34.2091C177.932 33.885 178.858 33.7229 180.016 33.7229H184.207V34.9501H180.062C178.889 34.9501 178.071 35.1584 177.608 35.5752C177.16 35.992 176.937 36.5091 176.937 37.1265C176.937 37.8211 177.207 38.3768 177.747 38.7936C178.287 39.2104 179.044 39.4188 180.016 39.4188C180.942 39.4188 181.737 39.2104 182.401 38.7936C183.08 38.3614 183.574 37.744 183.883 36.9413L184.253 38.0758C183.944 38.8785 183.404 39.5191 182.632 39.9976C181.876 40.4761 180.919 40.7154 179.761 40.7154ZM189.992 40.5996V28.4438H191.636V40.5996H189.992ZM190.825 25.758C190.486 25.758 190.2 25.6422 189.969 25.4107C189.737 25.1791 189.621 24.9013 189.621 24.5771C189.621 24.253 189.737 23.9828 189.969 23.7667C190.2 23.5352 190.486 23.4194 190.825 23.4194C191.165 23.4194 191.45 23.5275 191.682 23.7436C191.914 23.9597 192.029 24.2298 192.029 24.554C192.029 24.8936 191.914 25.1791 191.682 25.4107C191.466 25.6422 191.18 25.758 190.825 25.758ZM202.415 28.3281C203.403 28.3281 204.267 28.521 205.008 28.9069C205.765 29.2774 206.351 29.8485 206.768 30.6203C207.2 31.3921 207.416 32.3645 207.416 33.5377V40.5996H205.772V33.6998C205.772 32.4186 205.448 31.4538 204.8 30.8055C204.167 30.1418 203.272 29.8099 202.114 29.8099C201.25 29.8099 200.493 29.9874 199.845 30.3424C199.212 30.682 198.718 31.1837 198.363 31.8474C198.024 32.4957 197.854 33.283 197.854 34.2091V40.5996H196.21V28.4438H197.784V31.778L197.53 31.1528C197.916 30.273 198.533 29.5861 199.382 29.0921C200.231 28.5827 201.242 28.3281 202.415 28.3281Z" fill="white"/>
</svg>
