<svg width="101" height="100" viewBox="0 0 101 100" fill="none" xmlns="http://www.w3.org/2000/svg">
<path d="M50.5 25V75M63 39.5833C63 33.8333 57.4042 29.1667 50.5 29.1667C43.5958 29.1667 38 33.8333 38 39.5833C38 45.3333 43.5958 50 50.5 50C57.4042 50 63 54.6667 63 60.4167C63 66.1667 57.4042 70.8333 50.5 70.8333C43.5958 70.8333 38 66.1667 38 60.4167" stroke="#FF9606" stroke-width="4" stroke-linecap="round"/>
<path d="M29.6666 13.9083C35.9976 10.2447 43.1853 8.32125 50.4999 8.33331C73.5124 8.33331 92.1666 26.9875 92.1666 50C92.1666 73.0125 73.5124 91.6666 50.4999 91.6666C27.4874 91.6666 8.83325 73.0125 8.83325 50C8.83325 42.4125 10.8624 35.2916 14.4083 29.1666" stroke="#FF9606" stroke-width="4" stroke-linecap="round"/>
</svg>
